<svg width="24" height="24" viewBox="0 0 32 32" fill="none" xmlns="http://www.w3.org/2000/svg">
<path d="M16 32C24.8366 32 32 24.8366 32 16C32 7.16344 24.8366 0 16 0C7.16344 0 0 7.16344 0 16C0 24.8366 7.16344 32 16 32Z" fill="#13B5EC"/>
<path fill-rule="evenodd" clip-rule="evenodd" d="M17.2 12.9L20.8 10.8C21.1 10.6 21.1 10.2 20.8 10L17.2 7.9C16.9 7.7 16.5 7.7 16.2 7.9L12.6 10C12.3 10.2 12.3 10.6 12.6 10.8L16.2 12.9C16.5 13.1 16.9 13.1 17.2 12.9ZM21.7 15.2L25.3 13.1C25.6 12.9 25.6 12.5 25.3 12.3L21.7 10.2C21.4 10 21 10 20.7 10.2L17.1 12.3C16.8 12.5 16.8 12.9 17.1 13.1L20.7 15.2C21 15.4 21.4 15.4 21.7 15.2ZM11.3 15.2L14.9 13.1C15.2 12.9 15.2 12.5 14.9 12.3L11.3 10.2C11 10 10.6 10 10.3 10.2L6.7 12.3C6.4 12.5 6.4 12.9 6.7 13.1L10.3 15.2C10.6 15.4 11 15.4 11.3 15.2ZM17.2 19.7L20.8 17.6C21.1 17.4 21.1 17 20.8 16.8L17.2 14.7C16.9 14.5 16.5 14.5 16.2 14.7L12.6 16.8C12.3 17 12.3 17.4 12.6 17.6L16.2 19.7C16.5 19.9 16.9 19.9 17.2 19.7ZM17.2 24.1L20.8 22C21.1 21.8 21.1 21.4 20.8 21.2L17.2 19.1C16.9 18.9 16.5 18.9 16.2 19.1L12.6 21.2C12.3 21.4 12.3 21.8 12.6 22L16.2 24.1C16.5 24.3 16.9 24.3 17.2 24.1Z" fill="white"/>
</svg>