<svg width="24" height="24" viewBox="0 0 33 31" fill="none" xmlns="http://www.w3.org/2000/svg">
<path d="M31.1442 1L18.5356 10.2356L20.7599 4.93209L31.1442 1Z" fill="#E2761B" stroke="#E2761B" stroke-width="0.3" stroke-linecap="round" stroke-linejoin="round"/>
<path d="M1.85071 1L14.3681 10.3174L12.2401 4.93209L1.85071 1Z" fill="#E4761B" stroke="#E4761B" stroke-width="0.3" stroke-linecap="round" stroke-linejoin="round"/>
<path d="M26.7252 21.8471L23.4695 26.7756L30.5518 28.6704L32.5986 21.9471L26.7252 21.8471Z" fill="#E4761B" stroke="#E4761B" stroke-width="0.3" stroke-linecap="round" stroke-linejoin="round"/>
<path d="M0.414566 21.9471L2.44801 28.6704L9.53034 26.7756L6.27461 21.8471L0.414566 21.9471Z" fill="#E4761B" stroke="#E4761B" stroke-width="0.3" stroke-linecap="round" stroke-linejoin="round"/>
<path d="M9.16934 13.5498L7.24316 16.4184L14.2637 16.7184L14.0364 9.14844L9.16934 13.5498Z" fill="#E4761B" stroke="#E4761B" stroke-width="0.3" stroke-linecap="round" stroke-linejoin="round"/>
<path d="M23.8254 13.5498L18.8765 9.06665L18.5356 16.7184L25.5562 16.4184L23.8254 13.5498Z" fill="#E4761B" stroke="#E4761B" stroke-width="0.3" stroke-linecap="round" stroke-linejoin="round"/>
<path d="M9.53027 26.7756L13.8092 24.7833L10.1213 22.0011L9.53027 26.7756Z" fill="#E4761B" stroke="#E4761B" stroke-width="0.3" stroke-linecap="round" stroke-linejoin="round"/>
<path d="M19.1855 24.7833L23.4645 26.7756L22.8734 22.0011L19.1855 24.7833Z" fill="#E4761B" stroke="#E4761B" stroke-width="0.3" stroke-linecap="round" stroke-linejoin="round"/>
<path d="M23.4645 26.7756L19.1855 24.7833L19.4946 27.4837L19.4537 28.5883L23.4645 26.7756Z" fill="#D7C1B3" stroke="#D7C1B3" stroke-width="0.3" stroke-linecap="round" stroke-linejoin="round"/>
<path d="M9.53027 26.7756L13.541 28.5883L13.5137 27.4837L13.8092 24.7833L9.53027 26.7756Z" fill="#D7C1B3" stroke="#D7C1B3" stroke-width="0.3" stroke-linecap="round" stroke-linejoin="round"/>
<path d="M13.6092 20.279L10.053 19.2562L12.5954 18.1333L13.6092 20.279Z" fill="#233447" stroke="#233447" stroke-width="0.3" stroke-linecap="round" stroke-linejoin="round"/>
<path d="M19.3856 20.279L20.3993 18.1333L22.9553 19.2562L19.3856 20.279Z" fill="#233447" stroke="#233447" stroke-width="0.3" stroke-linecap="round" stroke-linejoin="round"/>
<path d="M9.53037 26.7756L10.1487 21.8471L6.27466 21.9471L9.53037 26.7756Z" fill="#CD6116" stroke="#CD6116" stroke-width="0.3" stroke-linecap="round" stroke-linejoin="round"/>
<path d="M22.8513 21.8471L23.4696 26.7756L26.7253 21.9471L22.8513 21.8471Z" fill="#CD6116" stroke="#CD6116" stroke-width="0.3" stroke-linecap="round" stroke-linejoin="round"/>
<path d="M25.5562 16.4184L18.5356 16.7184L19.3992 20.279L20.4129 18.1333L22.9689 19.2562L25.5562 16.4184Z" fill="#CD6116" stroke="#CD6116" stroke-width="0.3" stroke-linecap="round" stroke-linejoin="round"/>
<path d="M10.053 19.2562L12.609 18.1333L13.6092 20.279L14.4864 16.7184L7.24316 16.4184L10.053 19.2562Z" fill="#CD6116" stroke="#CD6116" stroke-width="0.3" stroke-linecap="round" stroke-linejoin="round"/>
<path d="M7.24316 16.4184L10.1214 22.0011L10.053 19.2562L7.24316 16.4184Z" fill="#E4751F" stroke="#E4751F" stroke-width="0.3" stroke-linecap="round" stroke-linejoin="round"/>
<path d="M22.9689 19.2562L22.8733 22.0011L25.5562 16.4184L22.9689 19.2562Z" fill="#E4751F" stroke="#E4751F" stroke-width="0.3" stroke-linecap="round" stroke-linejoin="round"/>
<path d="M14.4863 16.7184L13.6091 20.279L14.6911 24.4015L15.0865 18.9515L14.4863 16.7184Z" fill="#E4751F" stroke="#E4751F" stroke-width="0.3" stroke-linecap="round" stroke-linejoin="round"/>
<path d="M18.5356 16.7184L17.9491 18.9377L18.309 24.4015L19.3992 20.279L18.5356 16.7184Z" fill="#E4751F" stroke="#E4751F" stroke-width="0.3" stroke-linecap="round" stroke-linejoin="round"/>
<path d="M19.3992 20.279L18.309 24.4015L19.1855 24.7833L22.8734 22.0011L22.9689 19.2562L19.3992 20.279Z" fill="#F6851B" stroke="#F6851B" stroke-width="0.3" stroke-linecap="round" stroke-linejoin="round"/>
<path d="M10.053 19.2562L10.1213 22.0011L13.8092 24.7833L14.6911 24.4015L13.6092 20.279L10.053 19.2562Z" fill="#F6851B" stroke="#F6851B" stroke-width="0.3" stroke-linecap="round" stroke-linejoin="round"/>
<path d="M19.4537 28.5883L19.4946 27.4837L19.2126 27.2383H13.7873L13.5137 27.4837L13.541 28.5883L9.53027 26.7756L10.8293 27.8665L13.7464 29.8452H19.2535L22.1705 27.8665L23.4695 26.7756L19.4537 28.5883Z" fill="#C0AD9E" stroke="#C0AD9E" stroke-width="0.3" stroke-linecap="round" stroke-linejoin="round"/>
<path d="M19.1855 24.7833L18.309 24.4015H14.6911L13.8092 24.7833L13.5137 27.4837L13.7873 27.2383H19.2126L19.4946 27.4837L19.1855 24.7833Z" fill="#161616" stroke="#161616" stroke-width="0.3" stroke-linecap="round" stroke-linejoin="round"/>
<path d="M31.6489 10.6447L32.7172 5.69705L31.1444 1L19.1855 9.82059L23.8254 13.5498L30.4017 15.3761L31.853 13.7488L31.2119 13.2942L32.2256 12.3851L31.4302 11.7851L32.444 11.0261L31.6489 10.6447Z" fill="#763D16" stroke="#763D16" stroke-width="0.3" stroke-linecap="round" stroke-linejoin="round"/>
<path d="M1.28271 5.69705L2.35102 10.6447L1.54224 11.0261L2.55599 11.7851L1.77433 12.3851L2.78807 13.2942L2.14698 13.7488L3.58372 15.3761L10.1601 13.5498L14.8 9.82059L2.84109 1L1.28271 5.69705Z" fill="#763D16" stroke="#763D16" stroke-width="0.3" stroke-linecap="round" stroke-linejoin="round"/>
<path d="M30.4016 15.3761L23.8253 13.5498L25.5562 16.4184L22.8733 22.0011L26.7252 21.9471H32.5986L30.4016 15.3761Z" fill="#F6851B" stroke="#F6851B" stroke-width="0.3" stroke-linecap="round" stroke-linejoin="round"/>
<path d="M10.1601 13.5498L3.58373 15.3761L0.414795 21.9471H6.27464L10.1214 22.0011L7.24318 16.4184L10.1601 13.5498Z" fill="#F6851B" stroke="#F6851B" stroke-width="0.3" stroke-linecap="round" stroke-linejoin="round"/>
<path d="M18.5356 16.7184L19.1855 9.82059L20.7599 4.93213H12.2401L13.8 9.82059L14.4864 16.7184L14.6775 18.9653L14.6911 24.4016H18.309L18.3226 18.9653L18.5356 16.7184Z" fill="#F6851B" stroke="#F6851B" stroke-width="0.3" stroke-linecap="round" stroke-linejoin="round"/>
</svg>