<svg width="24" height="24" viewBox="0 0 128 128" fill="none" xmlns="http://www.w3.org/2000/svg">
<circle cx="64" cy="64" r="64" fill="url(#paint0_linear)"/>
<path d="M110.584 64.9142H99.142C99.142 41.7651 80.161 23 56.7175 23C33.7685 23 15.0283 41.0631 14.4618 63.8114C13.8606 87.596 33.6449 108 57.528 108H63.9537C85.2863 108 110.584 91.7038 110.584 64.9142Z" fill="white"/>
<path d="M77.8201 64.9142H89.2624C89.2624 41.7651 70.2813 23 46.8378 23C23.8888 23 5.14868 41.0631 4.58221 63.8114C3.98097 87.596 23.7653 108 47.6484 108H54.074C75.4066 108 77.8201 91.7038 77.8201 64.9142Z" fill="url(#paint1_linear)"/>
<path d="M67.1747 65.5121C67.1747 74.1726 60.2802 81.0575 51.7836 81.0575C43.2869 81.0575 36.3818 74.1726 36.3818 65.5121C36.3818 56.8516 43.2763 50 51.7836 50C60.2908 50 67.1747 56.8516 67.1747 65.5121Z" fill="white"/>
<defs>
<linearGradient id="paint0_linear" x1="128" y1="74.0733" x2="35.1053" y2="20.7176" gradientUnits="userSpaceOnUse">
<stop stop-color="#534BB1"/>
<stop offset="1" stop-color="#551BF9"/>
</linearGradient>
<linearGradient id="paint1_linear" x1="77.8201" y1="70.3333" x2="15.9723" y2="32.4607" gradientUnits="userSpaceOnUse">
<stop stop-color="#534BB1"/>
<stop offset="1" stop-color="#551BF9"/>
</linearGradient>
</defs>
</svg>