<svg width="24" height="24" viewBox="0 0 32 32" fill="none" xmlns="http://www.w3.org/2000/svg">
<path d="M32 16C32 24.8366 24.8366 32 16 32C7.16344 32 0 24.8366 0 16C0 7.16344 7.16344 0 16 0C24.8366 0 32 7.16344 32 16Z" fill="#3B99FC"/>
<path d="M9.58481 11.73C13.1545 8.15997 18.8455 8.15997 22.4152 11.73L22.8217 12.1365C23.0015 12.3163 23.0015 12.6103 22.8217 12.7902L21.4406 14.1713C21.3507 14.2612 21.2037 14.2612 21.1138 14.1713L20.5526 13.6101C18.0731 11.1307 13.9269 11.1307 11.4474 13.6101L10.8455 14.212C10.7556 14.3019 10.6086 14.3019 10.5187 14.212L9.13756 12.8309C8.95781 12.651 8.95781 12.3571 9.13756 12.1773L9.58481 11.73ZM25.0258 14.3407L26.2581 15.5729C26.4378 15.7527 26.4378 16.0466 26.2581 16.2265L20.4371 22.0475C20.2574 22.2272 19.9634 22.2272 19.7836 22.0475C19.7836 22.0475 19.7836 22.0475 19.7836 22.0475L15.7559 18.0198C15.711 17.9749 15.6375 17.9749 15.5926 18.0198C15.5926 18.0198 15.5926 18.0198 15.5926 18.0198L11.5665 22.0475C11.3867 22.2272 11.0928 22.2272 10.913 22.0475C10.913 22.0475 10.913 22.0475 10.913 22.0475L5.09043 16.225C4.91068 16.0453 4.91068 15.7513 5.09043 15.5715L6.32422 14.3377C6.504 14.1579 6.79799 14.1579 6.97777 14.3377L11.0054 18.3654C11.0503 18.4103 11.1239 18.4103 11.1688 18.3654C11.1688 18.3654 11.1688 18.3654 11.1688 18.3654L15.1933 14.3392C15.3731 14.1594 15.667 14.1594 15.8468 14.3392L19.8745 18.3654C19.9194 18.4103 19.9929 18.4103 20.0378 18.3654L24.0671 14.3407C24.2469 14.1609 24.5409 14.1609 24.7206 14.3407L25.0258 14.3407Z" fill="white"/>
</svg>