<svg width="24" height="24" viewBox="0 0 48 48" fill="none" xmlns="http://www.w3.org/2000/svg">
  <rect width="48" height="48" rx="12" fill="#0364FF"/>
  <path d="M34.1679 14.0625H13.8312C13.4489 14.0625 13.1387 14.3728 13.1387 14.755V33.2691C13.1387 33.6513 13.4489 33.9616 13.8312 33.9616H34.1679C34.5502 33.9616 34.8604 33.6513 34.8604 33.2691V14.755C34.8604 14.3728 34.5502 14.0625 34.1679 14.0625Z" fill="white"/>
  <path d="M23.9995 30.1367C20.9841 30.1367 18.5391 27.6917 18.5391 24.6763C18.5391 21.6609 20.9841 19.2158 23.9995 19.2158C27.0149 19.2158 29.46 21.6609 29.46 24.6763C29.46 27.6917 27.0149 30.1367 23.9995 30.1367ZM23.9995 21.9658C22.5012 21.9658 21.2891 23.178 21.2891 24.6763C21.2891 26.1745 22.5012 27.3867 23.9995 27.3867C25.4978 27.3867 26.71 26.1745 26.71 24.6763C26.71 23.178 25.4978 21.9658 23.9995 21.9658Z" fill="#0364FF"/>
</svg>